<svg width="146" height="60" viewBox="0 0 146 60" fill="none" xmlns="http://www.w3.org/2000/svg">
<g clip-path="url(#clip0_240_2621)">
<path d="M83.9181 34.3243L82.9684 29.6987H77.5769L76.6272 34.3243H71.6646L77.3931 13.0959H83.2748L88.9727 34.3243H83.9181ZM78.3121 26.176H82.2332L80.2727 16.6799L78.3121 26.176Z" fill="white"/>
<path d="M102.634 22.8677L108.118 34.3243H102.879L99.6935 26.1454L96.6302 34.3243H91.5143L96.814 23.0515L91.9125 13.0959H97.1203L99.7548 19.9883L102.573 13.0959H107.658L102.634 22.8677Z" fill="white"/>
<path d="M117.592 13.0959V34.3243H112.691V13.0959H117.592Z" fill="white"/>
<path d="M130.322 12.5752C131.752 12.5752 133.008 12.81 134.09 13.2797C135.193 13.729 136.194 14.4029 137.092 15.3015L134.856 17.8746C133.528 16.731 132.17 16.1592 130.782 16.1592C130.006 16.1592 129.393 16.3532 128.944 16.7412C128.494 17.1292 128.27 17.6602 128.27 18.3341C128.27 18.7834 128.372 19.1612 128.576 19.4675C128.78 19.7738 129.138 20.0699 129.648 20.3558C130.159 20.6417 130.914 20.9685 131.915 21.3361C133.222 21.8262 134.274 22.3572 135.07 22.929C135.887 23.4804 136.51 24.1747 136.939 25.012C137.368 25.8493 137.582 26.8908 137.582 28.1365C137.582 29.4435 137.266 30.6075 136.633 31.6286C136.02 32.6293 135.121 33.4155 133.937 33.9873C132.773 34.5591 131.404 34.845 129.832 34.845C126.871 34.845 124.41 33.8443 122.449 31.843L124.839 29.178C125.594 29.8315 126.35 30.3318 127.106 30.679C127.882 31.0262 128.699 31.1997 129.556 31.1997C130.496 31.1997 131.221 30.9547 131.731 30.4646C132.242 29.9744 132.497 29.3209 132.497 28.5041C132.497 27.7281 132.262 27.1052 131.793 26.6355C131.323 26.1658 130.434 25.6961 129.127 25.2264C127.003 24.43 125.492 23.5314 124.594 22.5307C123.695 21.5301 123.246 20.2537 123.246 18.7017C123.246 17.4968 123.552 16.4349 124.165 15.5159C124.777 14.5765 125.615 13.8515 126.677 13.341C127.759 12.8305 128.974 12.5752 130.322 12.5752Z" fill="white"/>
<path d="M75.7436 47.991L75.4231 46.5207H73.6322L73.3117 47.991H71.9355L73.7264 41.4687H75.3665L77.148 47.991H75.7436ZM73.8584 45.5216H75.1969L74.5276 42.4772L73.8584 45.5216Z" fill="white"/>
<path d="M80.3816 41.4687C81.2048 41.4687 81.8364 41.6446 82.2762 41.9965C82.7161 42.3484 82.936 42.8699 82.936 43.5611C82.936 44.29 82.7192 44.8398 82.2857 45.2106C81.8521 45.575 81.2551 45.7572 80.4948 45.7572H79.9669V47.991H78.6096V41.4687H80.3816ZM80.4005 44.7581C80.7838 44.7581 81.0697 44.667 81.2582 44.4848C81.4468 44.3026 81.541 43.9978 81.541 43.5705C81.541 43.1872 81.4468 42.9045 81.2582 42.7223C81.0697 42.54 80.7807 42.4489 80.3911 42.4489H79.9669V44.7581H80.4005Z" fill="white"/>
<path d="M87.2294 47.991L86.9089 46.5207H85.118L84.7976 47.991H83.4214L85.2123 41.4687H86.8524L88.6338 47.991H87.2294ZM85.3442 45.5216H86.6827L86.0135 42.4772L85.3442 45.5216Z" fill="white"/>
<path d="M92.0371 45.4179H91.4527V47.991H90.0954V41.4687H91.9052C93.5767 41.4687 94.4124 42.1159 94.4124 43.4103C94.4124 44.2586 94.0323 44.843 93.2719 45.1634L94.7706 47.991H93.2719L92.0371 45.4179ZM91.9712 44.466C92.3293 44.466 92.5901 44.3811 92.7535 44.2115C92.9232 44.0418 93.008 43.7748 93.008 43.4103C93.008 43.0773 92.9169 42.8322 92.7347 42.6751C92.5587 42.518 92.2791 42.4395 91.8958 42.4395H91.4527V44.466H91.9712Z" fill="white"/>
<path d="M100.088 41.4687L99.9462 42.5243H98.4852V47.991H97.1279V42.5243H95.6009V41.4687H100.088Z" fill="white"/>
<path d="M105.556 43.5517C105.908 43.5517 106.197 43.6679 106.424 43.9004C106.65 44.1329 106.763 44.4251 106.763 44.777C106.763 45.1289 106.65 45.4211 106.424 45.6536C106.197 45.8798 105.908 45.9929 105.556 45.9929C105.204 45.9929 104.915 45.8766 104.689 45.6441C104.463 45.4054 104.35 45.1132 104.35 44.7676C104.35 44.4157 104.463 44.1266 104.689 43.9004C104.915 43.6679 105.204 43.5517 105.556 43.5517Z" fill="white"/>
<path d="M114.765 47.991V45.1257H112.955V47.991H111.598V41.4687H112.955V44.0512H114.765V41.4687H116.122V47.991H114.765Z" fill="white"/>
<path d="M120.614 41.3179C121.45 41.3179 122.097 41.6101 122.556 42.1944C123.014 42.7725 123.244 43.6177 123.244 44.7299C123.244 45.8295 123.014 46.6746 122.556 47.2653C122.097 47.8497 121.45 48.1419 120.614 48.1419C119.778 48.1419 119.128 47.8528 118.663 47.2747C118.204 46.6903 117.975 45.8421 117.975 44.7299C117.975 43.6302 118.204 42.7882 118.663 42.2039C119.128 41.6132 119.778 41.3179 120.614 41.3179ZM120.614 42.3358C120.199 42.3358 119.891 42.5212 119.69 42.8919C119.489 43.2626 119.389 43.8753 119.389 44.7299C119.389 45.5907 119.489 46.2065 119.69 46.5772C119.898 46.9417 120.205 47.1239 120.614 47.1239C121.029 47.1239 121.333 46.9417 121.528 46.5772C121.729 46.2065 121.83 45.5907 121.83 44.7299C121.83 43.8753 121.729 43.2626 121.528 42.8919C121.333 42.5212 121.029 42.3358 120.614 42.3358Z" fill="white"/>
<path d="M128.746 41.4687L128.605 42.5243H127.144V47.991H125.786V42.5243H124.259V41.4687H128.746Z" fill="white"/>
<path d="M133.868 41.4687L133.726 42.4584H131.643V44.1832H133.462V45.1634H131.643V46.992H133.868V47.991H130.286V41.4687H133.868Z" fill="white"/>
<path d="M137.059 41.4687V46.8977H139.359L139.218 47.991H135.702V41.4687H137.059Z" fill="white"/>
<g clip-path="url(#clip1_240_2621)">
<path d="M19.1455 3.72298C19.405 3.95987 19.6245 4.23293 19.7985 4.53147C23.0683 3.15806 26.6598 2.39909 30.4286 2.39909C45.5992 2.39909 57.8974 14.6968 57.8974 29.8667C57.8974 45.0367 45.5992 57.3343 30.4286 57.3343C15.258 57.3343 2.95975 45.0367 2.95975 29.8667C2.95975 23.0323 5.45594 16.7808 9.58641 11.9743C9.52892 11.9184 9.47198 11.8615 9.41558 11.8035C8.90012 11.2764 8.46165 10.6888 8.09713 10.0326C3.40852 15.3073 0.560547 22.2544 0.560547 29.8667C0.560547 46.3616 13.9329 59.7334 30.4286 59.7334C46.9242 59.7334 60.2966 46.3616 60.2966 29.8667C60.2966 13.3718 46.9242 0 30.4286 0C25.8233 0 21.4614 1.04225 17.566 2.90372C18.1509 3.03276 18.6966 3.31325 19.1455 3.72298Z" fill="white"/>
<path d="M17.7789 5.47854C17.7433 5.43585 17.7047 5.39534 17.6633 5.35736C17.6633 5.35736 17.6633 5.35737 17.6633 5.35736C17.4312 5.14459 17.1279 5.0264 16.8131 5.02611H16.6952C16.6743 5.02792 16.6535 5.03024 16.6329 5.03307C16.323 5.0755 16.039 5.23137 15.8366 5.47172C15.8096 5.50376 15.7843 5.53698 15.7608 5.57124C15.5964 5.81101 15.5188 6.10137 15.5435 6.39359C15.5441 6.40115 15.5447 6.40872 15.5453 6.41629C15.5543 6.52977 15.5648 6.64308 15.5768 6.75618C15.7129 8.04552 16.0383 9.30844 16.5432 10.504C14.9609 9.90598 13.7966 9.40651 12.9815 8.65019C12.4092 8.11904 12.009 7.46122 11.7573 6.55362C11.5287 5.72939 11.4225 4.69916 11.4209 3.37073C11.4209 3.03563 11.2878 2.71425 11.0508 2.47729C10.8139 2.24033 10.4925 2.10721 10.1573 2.10721C9.82325 2.1088 9.5034 2.24262 9.26773 2.4794C9.03205 2.71619 8.89975 3.03666 8.89976 3.37073C8.89976 5.52052 9.18658 7.11707 9.71746 8.34672C10.0699 9.16296 10.5298 9.81753 11.0847 10.3649C12.4142 11.6763 14.289 12.3726 16.5372 13.203C16.6668 13.2514 16.7984 13.2996 16.9319 13.3485C17.2617 13.4694 17.6032 13.5945 17.9547 13.7368C18.2592 13.8566 18.5753 13.9728 18.904 14.0868C18.2013 14.2274 17.5021 14.3866 16.8071 14.5645C16.4862 14.6521 16.2128 14.8627 16.0462 15.1506C15.8796 15.4385 15.8333 15.7805 15.9172 16.1023C15.9417 16.1962 15.9767 16.2861 16.021 16.3706C16.0707 16.4817 16.1365 16.5859 16.2173 16.6797L16.6325 17.0949C17.6245 18.0872 18.5642 19.0271 19.5242 19.8085C19.6448 19.9063 19.7669 20.0021 19.8905 20.0959L17.1946 21.3212C17.0322 21.3841 16.8829 21.4805 16.7574 21.6061C16.5204 21.843 16.3873 22.1644 16.3873 22.4995V25.8222C16.3873 26.0821 16.3973 32.0039 17.275 35.2187C17.3474 35.4861 17.5059 35.7223 17.726 35.8907C17.9461 36.0591 18.2155 36.1503 18.4926 36.1503C18.6062 36.1502 18.7193 36.134 18.8285 36.1024C19.1516 36.014 19.4264 35.8009 19.5925 35.51C19.7586 35.2191 19.8024 34.8741 19.7142 34.5509C18.9144 31.664 18.9144 25.8862 18.9144 25.8302V23.3149L22.0854 21.8737L22.9194 21.4935C23.0408 21.4546 23.1563 21.3973 23.2615 21.3231C23.3389 21.2729 23.4107 21.2142 23.4757 21.148C23.5942 21.0271 23.6873 20.8835 23.7493 20.7259C23.8113 20.5683 23.8409 20.3998 23.8365 20.2305C23.8321 20.0612 23.7937 19.8945 23.7236 19.7404C23.6535 19.5862 23.5531 19.4477 23.4284 19.3331C23.3037 19.2185 23.1572 19.1301 22.9976 19.0733C22.9535 19.0575 22.9086 19.0443 22.8631 19.0336C22.2502 18.6955 21.6681 18.3039 21.1237 17.8633C20.6379 17.4662 20.1427 17.0106 19.6322 16.5177C21.6335 16.1297 23.6641 15.9044 25.7041 15.8446C25.7492 15.8496 25.7946 15.8521 25.8401 15.852C25.906 15.8518 25.9714 15.8463 26.0357 15.836C27.0492 15.8139 28.0633 15.8486 29.073 15.94C32.072 16.2239 34.9491 17.4094 37.4822 18.461C38.8538 19.0268 40.1513 19.5606 41.3929 19.9345C42.6134 20.2803 43.8701 20.4782 45.1359 20.5245C43.9918 22.3616 41.7856 23.1493 37.8461 24.4268C35.021 25.3404 31.5062 26.478 27.5615 28.5772C23.7788 30.5884 21.1037 33.7473 20.4079 37.026C19.8501 39.659 20.5459 42.324 22.4252 44.7231C22.4603 44.7679 22.4982 44.8102 22.5387 44.8496C24.673 47.3345 27.2507 49.4887 29.8088 50.9268C29.9988 51.0329 30.2129 51.0887 30.4306 51.0887L30.4226 51.0987C30.6742 51.1 30.9198 51.0261 31.1283 50.8877C35.2422 48.5541 40.563 43.6486 43.0044 37.042C43.2256 36.4489 43.4209 35.8405 43.5902 35.2167C43.6502 35.0008 43.7062 34.7669 43.7561 34.519C44.05 33.1695 44.258 31.3522 44.3779 29.107V28.997C44.3777 28.9893 44.3774 28.9815 44.377 28.9738C44.3746 28.8265 44.3463 28.6801 44.2929 28.5412L44.29 28.5332C44.2793 28.5058 44.2675 28.4795 44.2553 28.4526L44.2495 28.4397L44.244 28.4273V28.4153L44.198 28.3333C44.1864 28.3093 44.1723 28.2865 44.156 28.2653C44.0561 28.1194 43.9267 27.9959 43.7763 27.903C43.6258 27.81 43.4575 27.7496 43.2823 27.7255H43.1783C43.1544 27.7235 43.1303 27.7235 43.1063 27.7255C43.0609 27.7259 43.0154 27.7292 42.9704 27.7355C42.9259 27.7381 42.8817 27.7448 42.8384 27.7555C42.805 27.7611 42.7722 27.7698 42.7405 27.7815C42.708 27.7895 42.6765 27.8009 42.6465 27.8155L42.5485 27.8575L42.5285 27.8695C42.506 27.8812 42.4839 27.8936 42.4622 27.9066C41.6763 28.2817 40.3199 28.7273 38.8838 29.199L38.8776 29.201C34.1011 30.7738 29.165 32.3991 29.165 35.5026C29.165 35.8377 29.2981 36.1591 29.5351 36.396C29.7721 36.633 30.0935 36.7661 30.4286 36.7661H30.4326C30.7677 36.7661 31.0891 36.633 31.3261 36.396C31.563 36.1591 31.6962 35.8377 31.6962 35.5026C31.6962 35.4746 31.7202 34.8328 33.9454 33.7472C35.5898 32.9441 37.7592 32.2308 39.6737 31.6013L39.723 31.5851C40.4348 31.3504 41.1047 31.1296 41.7104 30.9168C41.6231 32.1405 41.434 33.3547 41.145 34.5469C41.093 34.7309 41.039 34.9168 40.9831 35.1007L40.9815 35.1059L40.979 35.1067C40.3433 35.3287 39.6215 35.5666 38.8797 35.8105C34.1013 37.3819 29.163 39.0093 29.163 42.1121C29.1562 42.2821 29.1839 42.4518 29.2443 42.6108C29.3047 42.7699 29.3966 42.9151 29.5145 43.0378C29.6324 43.1605 29.7739 43.2581 29.9304 43.3248C30.087 43.3915 30.2554 43.4259 30.4256 43.4259C30.5957 43.4259 30.7641 43.3915 30.9207 43.3248C31.0773 43.2581 31.2187 43.1605 31.3366 43.0378C31.4546 42.9151 31.5465 42.7699 31.6069 42.6108C31.6673 42.4518 31.6949 42.2821 31.6881 42.1121C31.6881 42.0861 31.7121 41.4443 33.9374 40.3588C35.5817 39.5556 37.7512 38.8423 39.6656 38.2128L39.6695 38.2116C39.6987 38.2034 39.7274 38.1933 39.7555 38.1816L39.7567 38.1812C37.4612 42.8546 33.6262 46.4052 30.4286 48.3557L30.4189 48.3618C28.3089 47.059 26.1421 45.1836 24.3866 43.1217C24.3724 43.105 24.3577 43.0886 24.3427 43.0727C22.9759 41.2839 22.488 39.4246 22.8811 37.5498C23.4229 34.9928 25.6162 32.4737 28.7471 30.8084C32.4882 28.8172 35.7374 27.7658 38.6061 26.8376L38.6317 26.8293C43.2639 25.3306 46.9389 24.1415 48.1954 19.7663C48.2799 19.5798 48.3186 19.3738 48.3056 19.1658C48.2847 18.8312 48.1317 18.5186 47.8802 18.2969C47.852 18.272 47.8228 18.2485 47.7928 18.2263C47.6632 18.1285 47.5149 18.0556 47.3549 18.0132C47.1707 17.9644 46.9798 17.9583 46.7961 17.993C45.563 18.0586 43.8021 18.0198 42.1287 17.5174C41.005 17.1715 39.7654 16.6597 38.4539 16.1179L38.447 16.1151C35.7496 15.0042 32.6909 13.7445 29.3189 13.4249C28.1821 13.3216 27.0403 13.2836 25.8992 13.3111C24.3662 12.9892 23.0322 12.6758 21.8494 12.3513C19.6462 11.6236 18.3726 9.5464 18.0667 6.17567C18.0441 5.91805 17.943 5.67505 17.7789 5.47854Z" fill="white"/>
</g>
</g>
<defs>
<clipPath id="clip0_240_2621">
<rect width="144.944" height="60" fill="white" transform="translate(0.5)"/>
</clipPath>
<clipPath id="clip1_240_2621">
<rect width="59.7361" height="59.7334" fill="white" transform="translate(0.560547)"/>
</clipPath>
</defs>
</svg>
