<svg width="67" height="66" viewBox="0 0 67 66" fill="none" xmlns="http://www.w3.org/2000/svg">
<circle cx="33.5" cy="33" r="32" stroke="black" stroke-width="2"/>
<path d="M48.5 40V36C48.5 33.7909 46.7091 32 44.5 32H22.5C20.2909 32 18.5 33.7909 18.5 36V40H48.5Z" stroke="black" stroke-width="2" stroke-linecap="round" stroke-linejoin="round"/>
<path d="M46.5 32V24C46.5 21.7909 44.7091 20 42.5 20H24.5C22.2909 20 20.5 21.7909 20.5 24V32" stroke="black" stroke-width="2" stroke-linecap="round" stroke-linejoin="round"/>
<path d="M48.5 40H49.5C49.5 39.4477 49.0523 39 48.5 39V40ZM18.5 40V39C17.9477 39 17.5 39.4477 17.5 40H18.5ZM22.5 44V43C21.9477 43 21.5 43.4477 21.5 44H22.5ZM44.5 44H45.5C45.5 43.4477 45.0523 43 44.5 43V44ZM47.5 40V44H49.5V40H47.5ZM18.5 41H48.5V39H18.5V41ZM19.5 44V40H17.5V44H19.5ZM20.5 45C19.9477 45 19.5 44.5523 19.5 44H17.5C17.5 45.6569 18.8431 47 20.5 47V45ZM21.5 44C21.5 44.5523 21.0523 45 20.5 45V47C22.1569 47 23.5 45.6569 23.5 44H21.5ZM44.5 43H22.5V45H44.5V43ZM43.5 44C43.5 45.6569 44.8431 47 46.5 47V45C45.9477 45 45.5 44.5523 45.5 44H43.5ZM46.5 47C48.1569 47 49.5 45.6569 49.5 44H47.5C47.5 44.5523 47.0523 45 46.5 45V47Z" fill="black"/>
<path d="M23.5 30C23.5 28.8954 24.3954 28 25.5 28H31.5C32.6046 28 33.5 28.8954 33.5 30V32H23.5V30Z" stroke="black" stroke-width="2" stroke-linejoin="round"/>
<path d="M33.5 30C33.5 28.8954 34.3954 28 35.5 28H41.5C42.6046 28 43.5 28.8954 43.5 30V32H33.5V30Z" stroke="black" stroke-width="2" stroke-linejoin="round"/>
</svg>
