<svg width="21" height="20" viewBox="0 0 21 20" fill="none" xmlns="http://www.w3.org/2000/svg">
<path fill-rule="evenodd" clip-rule="evenodd" d="M18.8152 15.5549C19.9139 13.9103 20.5002 11.9768 20.5 9.99896C20.4997 7.34698 19.446 4.80371 17.5707 2.92857C15.6954 1.05343 13.152 0 10.5 0C8.52215 0 6.58871 0.586512 4.94419 1.68537C3.29968 2.78423 2.01796 4.34608 1.26111 6.1734C0.504265 8.00072 0.306291 10.0114 0.692227 11.9513C1.07816 13.8911 2.03067 15.673 3.4293 17.0714C4.82793 18.4699 6.60986 19.4222 8.54973 19.808C10.4896 20.1937 12.5003 19.9955 14.3276 19.2385C16.1548 18.4815 17.7165 17.1996 18.8152 15.5549ZM17.8636 6.71578L16.6597 8.026C17.378 8.68637 17.8047 9.60508 17.8457 10.58C17.8867 11.5549 17.5387 12.5062 16.8784 13.2246C16.218 13.943 15.2993 14.3696 14.3244 14.4106C13.3494 14.4516 12.3982 14.1037 11.6798 13.4433L10.5016 14.7257L9.32241 13.4423C8.96838 13.7782 8.55107 14.0403 8.09477 14.2133C7.63847 14.3863 7.15231 14.4669 6.66458 14.4502C6.17686 14.4335 5.69733 14.32 5.25391 14.1162C4.8105 13.9124 4.41206 13.6224 4.08179 13.2631C3.75153 12.9039 3.49605 12.4825 3.33023 12.0235C3.16441 11.5645 3.09155 11.0771 3.11592 10.5898C3.14028 10.1024 3.26136 9.62467 3.47213 9.18452C3.68289 8.74438 3.97912 8.35055 4.34356 8.026L3.13959 6.71578H5.81472C7.19774 5.77472 8.83188 5.27148 10.5047 5.27148C12.1775 5.27148 13.8117 5.77472 15.1947 6.71578H17.8636ZM5.43833 12.8135C5.84769 13.0874 6.3291 13.2337 6.82163 13.2339V13.239C7.14864 13.2392 7.47246 13.1749 7.77461 13.0498C8.07676 12.9248 8.35131 12.7414 8.58259 12.5103C8.81386 12.2791 8.99732 12.0046 9.12249 11.7025C9.24766 11.4004 9.31209 11.0766 9.31209 10.7496C9.31311 10.2571 9.168 9.77531 8.89513 9.36527C8.62225 8.95523 8.23387 8.63535 7.77914 8.44611C7.32441 8.25687 6.82376 8.20677 6.34055 8.30216C5.85734 8.39755 5.41328 8.63414 5.06457 8.98198C4.71586 9.32982 4.47817 9.77328 4.38158 10.2563C4.28499 10.7392 4.33384 11.24 4.52195 11.6952C4.71006 12.1504 5.02897 12.5396 5.43833 12.8135ZM7.73879 7.03249C9.31003 7.63396 10.5016 9.04014 10.5016 10.6784C10.5016 9.04014 11.6932 7.63396 13.2644 7.03249C12.3889 6.66813 11.4499 6.48055 10.5016 6.48055C9.55328 6.48055 8.61432 6.66813 7.73879 7.03249ZM12.7965 12.8195C13.2059 13.093 13.6872 13.239 14.1795 13.239C14.8398 13.239 15.473 12.9768 15.9398 12.5099C16.4067 12.043 16.6689 11.4099 16.6689 10.7496C16.6689 10.2573 16.5229 9.77595 16.2494 9.36657C15.9759 8.95718 15.5871 8.6381 15.1322 8.44968C14.6773 8.26126 14.1768 8.21196 13.6939 8.30802C13.211 8.40407 12.7674 8.64117 12.4192 8.98932C12.0711 9.33747 11.834 9.78105 11.7379 10.264C11.6419 10.7469 11.6912 11.2474 11.8796 11.7023C12.068 12.1572 12.3871 12.546 12.7965 12.8195ZM13.4545 9.66449C13.6691 9.52109 13.9214 9.44455 14.1795 9.44455C14.3509 9.44455 14.5206 9.4783 14.6789 9.54388C14.8373 9.60947 14.9812 9.7056 15.1023 9.82679C15.2235 9.94798 15.3197 10.0918 15.3852 10.2502C15.4508 10.4085 15.4846 10.5782 15.4846 10.7496C15.4846 11.0077 15.408 11.2601 15.2646 11.4747C15.1212 11.6893 14.9174 11.8566 14.6789 11.9553C14.4405 12.0541 14.1781 12.08 13.9249 12.0296C13.6718 11.9793 13.4392 11.855 13.2567 11.6724C13.0742 11.4899 12.9499 11.2574 12.8995 11.0042C12.8492 10.7511 12.875 10.4887 12.9738 10.2502C13.0726 10.0117 13.2398 9.8079 13.4545 9.66449ZM7.90675 11.4747C8.05016 11.2601 8.1267 11.0077 8.1267 10.7496C8.1267 10.5782 8.09294 10.4085 8.02736 10.2502C7.96177 10.0918 7.86564 9.94798 7.74445 9.82679C7.62327 9.7056 7.4794 9.60947 7.32106 9.54388C7.16272 9.4783 6.99302 9.44455 6.82163 9.44455C6.56352 9.44455 6.31119 9.52109 6.09658 9.66449C5.88196 9.8079 5.71469 10.0117 5.61591 10.2502C5.51713 10.4887 5.49129 10.7511 5.54164 11.0042C5.592 11.2574 5.7163 11.4899 5.89881 11.6724C6.08133 11.855 6.31387 11.9793 6.56703 12.0296C6.82018 12.08 7.08259 12.0541 7.32106 11.9553C7.55953 11.8566 7.76335 11.6893 7.90675 11.4747Z" fill="white"/>
</svg>
