<svg width="67" height="66" viewBox="0 0 67 66" fill="none" xmlns="http://www.w3.org/2000/svg">
<circle cx="33.5" cy="33" r="32" stroke="black" stroke-width="2"/>
<path d="M51.5 38.4098H52.5V38.351L52.4931 38.2925L51.5 38.4098ZM37.4721 32.7016L36.8435 31.9238L36.4141 32.2708L36.479 32.8191L37.4721 32.7016ZM34.5939 37.0253L34.321 36.0633L33.7875 36.2146L33.6333 36.7473L34.5939 37.0253ZM34.5316 37.2522L33.5638 37.0007L33.2836 38.0788L34.3855 38.2415L34.5316 37.2522ZM40.1351 46.4133L39.1874 46.094L38.6449 47.7041L40.3159 47.3969L40.1351 46.4133ZM50.43 42.4317L49.8695 41.6036L49.8695 41.6036L50.43 42.4317ZM51.4405 40.8775L52.4198 41.08L52.4236 41.0615L52.4267 41.0429L51.4405 40.8775ZM51.4874 40.5622L52.4791 40.6912L52.4814 40.6729L52.4831 40.6545L51.4874 40.5622ZM26.8649 46.4133L26.6841 47.3969L28.3551 47.7041L27.8126 46.094L26.8649 46.4133ZM32.4699 37.252L32.6158 38.2413L33.718 38.0788L33.4377 37.0004L32.4699 37.252ZM32.4077 37.0258L33.3683 36.7479L33.2141 36.2149L32.6802 36.0636L32.4077 37.0258ZM29.5281 32.7004L30.5211 32.8183L30.5862 32.2697L30.1565 31.9225L29.5281 32.7004ZM15.5 38.4229L14.5067 38.3071L14.5 38.3648V38.4229H15.5ZM15.5094 40.5253L14.5126 40.605L14.5144 40.6276L14.5172 40.65L15.5094 40.5253ZM15.567 40.9127L14.5815 41.0822L14.5854 41.1051L14.5904 41.1277L15.567 40.9127ZM16.57 42.4317L17.1305 41.6036L17.1305 41.6035L16.57 42.4317ZM42.907 31.7821C46.8261 31.7821 50.0584 34.7289 50.5069 38.5271L52.4931 38.2925C51.9272 33.4994 47.8519 29.7821 42.907 29.7821V31.7821ZM38.1006 33.4793C39.4147 32.4174 41.0853 31.7821 42.907 31.7821V29.7821C40.6114 29.7821 38.5005 30.5847 36.8435 31.9238L38.1006 33.4793ZM38.5 33.1768C38.5 32.9766 38.4882 32.7788 38.4651 32.584L36.479 32.8191C36.4928 32.936 36.5 33.0554 36.5 33.1768H38.5ZM34.8668 37.9874C36.963 37.3927 38.5 35.4655 38.5 33.1768H36.5C36.5 34.5477 35.5796 35.7063 34.321 36.0633L34.8668 37.9874ZM35.4995 37.5038C35.5169 37.4366 35.5353 37.3698 35.5545 37.3033L33.6333 36.7473C33.609 36.8313 33.5858 36.9158 33.5638 37.0007L35.4995 37.5038ZM41.5 44.1768C41.5 40.1581 38.5379 36.8331 34.6777 36.263L34.3855 38.2415C37.279 38.6689 39.5 41.1644 39.5 44.1768H41.5ZM41.0827 46.7327C41.3536 45.9288 41.5 45.0688 41.5 44.1768H39.5C39.5 44.8489 39.3899 45.4933 39.1874 46.094L41.0827 46.7327ZM40.3159 47.3969C45.7267 46.4021 49.2857 44.4137 50.9905 43.2598L49.8695 41.6036C48.3513 42.6311 45.0471 44.4935 39.9543 45.4298L40.3159 47.3969ZM50.9905 43.2598C51.7727 42.7304 52.2441 41.9298 52.4198 41.08L50.4612 40.675C50.3779 41.0777 50.1696 41.4004 49.8695 41.6036L50.9905 43.2598ZM50.4958 40.4332C50.4836 40.5267 50.4698 40.6196 50.4543 40.712L52.4267 41.0429C52.4463 40.9264 52.4637 40.8091 52.4791 40.6912L50.4958 40.4332ZM52.4831 40.6545C52.4944 40.533 52.5 40.4109 52.5 40.2886H50.5C50.5 40.3499 50.4972 40.4104 50.4917 40.4699L52.4831 40.6545ZM52.5 40.2886V38.4098H50.5V40.2886H52.5ZM25.5 44.1768C25.5 45.0688 25.6464 45.9288 25.9173 46.7327L27.8126 46.094C27.6101 45.4933 27.5 44.8489 27.5 44.1768H25.5ZM32.3239 36.2627C28.4629 36.8322 25.5 40.1576 25.5 44.1768H27.5C27.5 41.1639 29.7216 38.6682 32.6158 38.2413L32.3239 36.2627ZM31.4471 37.3037C31.4663 37.37 31.4846 37.4366 31.502 37.5036L33.4377 37.0004C33.4157 36.9158 33.3926 36.8316 33.3683 36.7479L31.4471 37.3037ZM28.5 33.1768C28.5 35.4663 30.038 37.394 32.1352 37.988L32.6802 36.0636C31.421 35.707 30.5 34.5482 30.5 33.1768H28.5ZM28.535 32.5826C28.5119 32.7778 28.5 32.9761 28.5 33.1768H30.5C30.5 33.0551 30.5072 32.9355 30.5211 32.8183L28.535 32.5826ZM24.0945 31.7821C25.9157 31.7821 27.5858 32.417 28.8997 33.4783L30.1565 31.9225C28.4998 30.5842 26.3894 29.7821 24.0945 29.7821V31.7821ZM16.4933 38.5386C16.9365 34.7349 20.1714 31.7821 24.0945 31.7821V29.7821C19.1446 29.7821 15.0661 33.507 14.5067 38.3071L16.4933 38.5386ZM14.5 38.4229V40.2886H16.5V38.4229H14.5ZM14.5 40.2886C14.5 40.3943 14.5042 40.4999 14.5126 40.605L16.5062 40.4456C16.5021 40.394 16.5 40.3416 16.5 40.2886H14.5ZM16.5526 40.7431C16.5331 40.6298 16.5161 40.5156 16.5016 40.4006L14.5172 40.65C14.5354 40.7951 14.5569 40.9392 14.5815 41.0822L16.5526 40.7431ZM14.5904 41.1277C14.7737 41.9597 15.2421 42.7405 16.0095 43.2598L17.1305 41.6035C16.8359 41.4041 16.63 41.0897 16.5436 40.6976L14.5904 41.1277ZM16.0095 43.2598C17.7143 44.4137 21.2733 46.4021 26.6841 47.3969L27.0457 45.4298C21.9529 44.4935 18.6487 42.6311 17.1305 41.6036L16.0095 43.2598ZM24.094 31.7818C27.3475 31.7818 29.9849 29.1443 29.9849 25.8909H27.9849C27.9849 28.0398 26.2429 29.7818 24.094 29.7818V31.7818ZM18.2031 25.8909C18.2031 29.1443 20.8406 31.7818 24.094 31.7818V29.7818C21.9451 29.7818 20.2031 28.0398 20.2031 25.8909H18.2031ZM24.094 20C20.8406 20 18.2031 22.6374 18.2031 25.8909H20.2031C20.2031 23.742 21.9451 22 24.094 22V20ZM29.9849 25.8909C29.9849 22.6374 27.3475 20 24.094 20V22C26.2429 22 27.9849 23.742 27.9849 25.8909H29.9849ZM42.9065 31.7818C46.16 31.7818 48.7974 29.1443 48.7974 25.8909H46.7974C46.7974 28.0398 45.0554 29.7818 42.9065 29.7818V31.7818ZM37.0156 25.8909C37.0156 29.1443 39.6531 31.7818 42.9065 31.7818V29.7818C40.7576 29.7818 39.0156 28.0398 39.0156 25.8909H37.0156ZM42.9065 20C39.6531 20 37.0156 22.6374 37.0156 25.8909H39.0156C39.0156 23.742 40.7576 22 42.9065 22V20ZM48.7974 25.8909C48.7974 22.6374 46.16 20 42.9065 20V22C45.0554 22 46.7974 23.742 46.7974 25.8909H48.7974Z" fill="black"/>
<path d="M40.376 45.3187L41.3583 45.506V45.506L40.376 45.3187ZM40.0684 46.4255L40.2472 47.4094C40.5952 47.3462 40.8839 47.1038 41.0064 46.7721L40.0684 46.4255ZM26.6093 45.239L27.5937 45.0632H27.5937L26.6093 45.239ZM26.9316 46.4255L25.9936 46.7721C26.1162 47.1038 26.4048 47.3462 26.7528 47.4094L26.9316 46.4255ZM39.3937 45.1315C39.3315 45.4575 39.2429 45.7741 39.1303 46.079L41.0064 46.7721C41.1569 46.3646 41.2753 45.9415 41.3583 45.506L39.3937 45.1315ZM39.5 44C39.5 44.3876 39.4634 44.7658 39.3937 45.1315L41.3583 45.506C41.4514 45.0175 41.5 44.514 41.5 44H39.5ZM33.5 38C36.8137 38 39.5 40.6863 39.5 44H41.5C41.5 39.5817 37.9183 36 33.5 36V38ZM33.5 38C36.2614 38 38.5 35.7614 38.5 33H36.5C36.5 34.6569 35.1569 36 33.5 36V38ZM38.5 33C38.5 30.2386 36.2614 28 33.5 28V30C35.1569 30 36.5 31.3431 36.5 33H38.5ZM33.5 28C30.7386 28 28.5 30.2386 28.5 33H30.5C30.5 31.3431 31.8431 30 33.5 30V28ZM28.5 33C28.5 35.7614 30.7386 38 33.5 38V36C31.8431 36 30.5 34.6569 30.5 33H28.5ZM27.5 44C27.5 40.6863 30.1863 38 33.5 38V36C29.0817 36 25.5 39.5817 25.5 44H27.5ZM27.5937 45.0632C27.5322 44.7188 27.5 44.3636 27.5 44H25.5C25.5 44.482 25.5427 44.9549 25.6249 45.4149L27.5937 45.0632ZM27.8697 46.079C27.7492 45.7529 27.6563 45.4134 27.5937 45.0632L25.6249 45.4149C25.7084 45.8825 25.8326 46.3362 25.9936 46.7721L27.8697 46.079ZM26.7528 47.4094C28.7529 47.773 31.0022 48 33.5 48V46C31.1241 46 28.9945 45.7841 27.1105 45.4417L26.7528 47.4094ZM33.5 48C35.9978 48 38.2471 47.773 40.2472 47.4094L39.8895 45.4417C38.0055 45.7841 35.8759 46 33.5 46V48Z" fill="black"/>
</svg>
