<svg width="67" height="66" viewBox="0 0 67 66" fill="none" xmlns="http://www.w3.org/2000/svg">
<circle cx="33.5" cy="33" r="32" stroke="black" stroke-width="2"/>
<path d="M23.5 32V45H43.5V32" stroke="black" stroke-width="2" stroke-linecap="round" stroke-linejoin="round"/>
<path d="M18.7929 30.2929C18.4024 30.6834 18.4024 31.3166 18.7929 31.7071C19.1834 32.0976 19.8166 32.0976 20.2071 31.7071L18.7929 30.2929ZM33.5 17L34.2071 16.2929C33.8166 15.9024 33.1834 15.9024 32.7929 16.2929L33.5 17ZM46.7929 31.7071C47.1834 32.0976 47.8166 32.0976 48.2071 31.7071C48.5976 31.3166 48.5976 30.6834 48.2071 30.2929L46.7929 31.7071ZM20.2071 31.7071L34.2071 17.7071L32.7929 16.2929L18.7929 30.2929L20.2071 31.7071ZM48.2071 30.2929L34.2071 16.2929L32.7929 17.7071L46.7929 31.7071L48.2071 30.2929Z" fill="black"/>
<rect x="29.5" y="36" width="8" height="9" stroke="black" stroke-width="2" stroke-linejoin="round"/>
</svg>
