<svg width="19" height="18" viewBox="0 0 19 18" fill="none" xmlns="http://www.w3.org/2000/svg">
<path d="M5.72391 0H13.2839C16.1639 0 18.5039 2.34 18.5039 5.22V12.78C18.5039 14.1644 17.9539 15.4922 16.975 16.4711C15.9961 17.45 14.6683 18 13.2839 18H5.72391C2.84391 18 0.503906 15.66 0.503906 12.78V5.22C0.503906 3.83557 1.05387 2.50784 2.03281 1.5289C3.01175 0.549963 4.33948 0 5.72391 0ZM5.54391 1.8C4.6846 1.8 3.8605 2.14136 3.25288 2.74897C2.64526 3.35659 2.30391 4.1807 2.30391 5.04V12.96C2.30391 14.751 3.75291 16.2 5.54391 16.2H13.4639C14.3232 16.2 15.1473 15.8586 15.7549 15.251C16.3626 14.6434 16.7039 13.8193 16.7039 12.96V5.04C16.7039 3.249 15.2549 1.8 13.4639 1.8H5.54391ZM14.2289 3.15C14.5273 3.15 14.8134 3.26853 15.0244 3.4795C15.2354 3.69048 15.3539 3.97663 15.3539 4.275C15.3539 4.57337 15.2354 4.85952 15.0244 5.0705C14.8134 5.28147 14.5273 5.4 14.2289 5.4C13.9305 5.4 13.6444 5.28147 13.4334 5.0705C13.2224 4.85952 13.1039 4.57337 13.1039 4.275C13.1039 3.97663 13.2224 3.69048 13.4334 3.4795C13.6444 3.26853 13.9305 3.15 14.2289 3.15ZM9.50391 4.5C10.6974 4.5 11.842 4.97411 12.6859 5.81802C13.5298 6.66193 14.0039 7.80653 14.0039 9C14.0039 10.1935 13.5298 11.3381 12.6859 12.182C11.842 13.0259 10.6974 13.5 9.50391 13.5C8.31043 13.5 7.16584 13.0259 6.32193 12.182C5.47801 11.3381 5.00391 10.1935 5.00391 9C5.00391 7.80653 5.47801 6.66193 6.32193 5.81802C7.16584 4.97411 8.31043 4.5 9.50391 4.5ZM9.50391 6.3C8.78782 6.3 8.10107 6.58446 7.59472 7.09081C7.08837 7.59716 6.80391 8.28392 6.80391 9C6.80391 9.71608 7.08837 10.4028 7.59472 10.9092C8.10107 11.4155 8.78782 11.7 9.50391 11.7C10.22 11.7 10.9067 11.4155 11.4131 10.9092C11.9194 10.4028 12.2039 9.71608 12.2039 9C12.2039 8.28392 11.9194 7.59716 11.4131 7.09081C10.9067 6.58446 10.22 6.3 9.50391 6.3Z" fill="white"/>
</svg>
