<svg width="67" height="66" viewBox="0 0 67 66" fill="none" xmlns="http://www.w3.org/2000/svg">
<circle cx="33.5" cy="33" r="32" stroke="black" stroke-width="2"/>
<path d="M19.9004 27.4449L46.5671 13.2227" stroke="black" stroke-width="2" stroke-linecap="round" stroke-linejoin="round"/>
<path d="M22.5664 41.4443C22.5664 38.1306 25.2527 35.4443 28.5664 35.4443H38.122C41.4357 35.4443 44.122 38.1306 44.122 41.4443V46.9999C44.122 50.3136 41.4357 52.9999 38.122 52.9999H28.5664C25.2527 52.9999 22.5664 50.3136 22.5664 46.9999V41.4443Z" stroke="black" stroke-width="2" stroke-linejoin="round"/>
<path d="M22.3457 43.8896H43.7901" stroke="black" stroke-width="2"/>
<path d="M33.2344 35.4443L33.2344 43.8888" stroke="black" stroke-width="2"/>
<path d="M29.4551 33.8891C29.4551 31.8027 31.1464 30.1113 33.2329 30.1113V30.1113C35.3193 30.1113 37.0106 31.8027 37.0106 33.8891V35.4447H29.4551V33.8891Z" stroke="black" stroke-width="2" stroke-linejoin="round"/>
<path d="M33.2344 30.1111V21" stroke="black" stroke-width="2" stroke-linecap="round" stroke-linejoin="round"/>
</svg>
