<svg width="21" height="20" viewBox="0 0 21 20" fill="none" xmlns="http://www.w3.org/2000/svg">
<g clip-path="url(#clip0_266_2610)">
<path fill-rule="evenodd" clip-rule="evenodd" d="M20.5 9.93058C20.5 9.95375 20.4998 9.97692 20.4996 10C20.4998 10.0231 20.5 10.0463 20.5 10.0694C20.5 17.8472 18.1374 20 10.5633 20C10.5421 20 10.521 19.9999 10.5 19.9997C10.4907 19.9998 10.4813 19.9999 10.4719 19.9999C10.4602 20 10.4485 20 10.4368 20C2.86259 20 0.5 17.8472 0.5 10.0694C0.5 10.0463 0.500143 10.0231 0.500427 10C0.500143 9.97692 0.5 9.95375 0.5 9.93058C0.5 2.15277 2.86259 0 10.4368 0C10.4579 0 10.479 0.000123374 10.5 0.000369432C10.521 0.000123374 10.5421 0 10.5633 0C18.1374 0 20.5 2.15277 20.5 9.93058ZM10.519 10.1972C12.1874 10.1972 13.5474 8.83717 13.5474 7.16891C13.5474 5.50063 12.1874 4.14062 10.519 4.14062C8.83266 4.14062 7.47266 5.50063 7.47266 7.16891C7.47266 8.83717 8.83266 10.1972 10.519 10.1972ZM10.519 5.9177C11.2081 5.9177 11.7703 6.47984 11.7703 7.16891C11.7703 7.85798 11.2081 8.42008 10.519 8.42008C9.83004 8.42008 9.26787 7.85798 9.26787 7.16891C9.24971 6.47984 9.81187 5.9177 10.519 5.9177ZM11.7343 12.6827C12.3508 12.5377 12.9493 12.3019 13.4933 11.9574C13.9103 11.7035 14.0373 11.1414 13.7653 10.7243C13.5114 10.3072 12.9493 10.1803 12.5322 10.4523C11.2991 11.2321 9.68525 11.2321 8.45218 10.4523C8.03511 10.1985 7.49111 10.3072 7.2191 10.7243C6.98337 11.1414 7.1103 11.6854 7.52738 11.9392C8.07138 12.2838 8.66978 12.5195 9.28633 12.6646L7.59991 14.351C7.25537 14.6956 7.25537 15.2577 7.59991 15.6022C7.78124 15.7836 7.99884 15.8561 8.23458 15.8561C8.47031 15.8561 8.68791 15.7654 8.86925 15.6022L10.5375 13.9339L12.2058 15.6022C12.5503 15.9467 13.1125 15.9467 13.457 15.6022C13.8015 15.2577 13.8015 14.6956 13.457 14.351L11.7343 12.6827Z" fill="white"/>
</g>
<defs>
<clipPath id="clip0_266_2610">
<rect width="20" height="20" fill="white" transform="translate(0.5)"/>
</clipPath>
</defs>
</svg>
