<svg width="103" height="104" viewBox="0 0 103 104" fill="none" xmlns="http://www.w3.org/2000/svg">
<circle cx="51.5" cy="52" r="50" stroke="black" stroke-width="3"/>
<path d="M66.9965 32.418L67.8965 31.218H67.8965L66.9965 32.418ZM67.0641 55.8217L67.9992 56.9945L68.0012 56.993L67.0641 55.8217ZM48.5306 59.8125V58.3125C47.7021 58.3125 47.0306 58.9841 47.0306 59.8125H48.5306ZM48.5306 75.4375V76.9375C49.359 76.9375 50.0306 76.2659 50.0306 75.4375H48.5306ZM37.4375 75.4375H35.9375C35.9375 76.2659 36.6091 76.9375 37.4375 76.9375V75.4375ZM37.4375 28.5625V27.0625C36.6091 27.0625 35.9375 27.7341 35.9375 28.5625H37.4375ZM58.609 50.0046L59.6125 51.1195L59.6145 51.1178L58.609 50.0046ZM48.5306 36.4765V34.9765C47.7021 34.9765 47.0306 35.648 47.0306 36.4765H48.5306ZM48.5306 51.8309H47.0306C47.0306 52.6593 47.7021 53.3309 48.5306 53.3309V51.8309ZM52.589 30.0625C58.5808 30.0625 63.0214 31.3117 66.0965 33.618L67.8965 31.218C64.1173 28.3836 58.9529 27.0625 52.589 27.0625V30.0625ZM66.0965 33.618C69.0755 35.8523 70.6372 39.1754 70.6372 43.8493H73.6372C73.6372 38.4222 71.7717 34.1244 67.8965 31.218L66.0965 33.618ZM70.6372 43.8493C70.6372 48.7795 69.0755 52.2917 66.1271 54.6504L68.0012 56.993C71.8168 53.9405 73.6372 49.471 73.6372 43.8493H70.6372ZM66.129 54.6488C63.1322 57.0382 59.01 58.3125 53.6036 58.3125V61.3125C59.4707 61.3125 64.3221 59.9263 67.9992 56.9945L66.129 54.6488ZM53.6036 58.3125H48.5306V61.3125H53.6036V58.3125ZM47.0306 59.8125V75.4375H50.0306V59.8125H47.0306ZM48.5306 73.9375H37.4375V76.9375H48.5306V73.9375ZM38.9375 75.4375V28.5625H35.9375V75.4375H38.9375ZM37.4375 30.0625H52.589V27.0625H37.4375V30.0625ZM52.6567 53.3309C55.4824 53.3309 57.8847 52.6745 59.6125 51.1195L57.6056 48.8897C56.6277 49.7697 55.0618 50.3309 52.6567 50.3309V53.3309ZM59.6145 51.1178C61.4581 49.4525 62.2059 46.8985 62.2059 43.8493H59.2059C59.2059 46.4819 58.5558 48.0314 57.6036 48.8914L59.6145 51.1178ZM62.2059 43.8493C62.2059 41.114 61.4328 38.8008 59.6422 37.2011C57.8839 35.6301 55.3966 34.9765 52.4537 34.9765V37.9765C55.0123 37.9765 56.6511 38.5516 57.6435 39.4382C58.6037 40.2961 59.2059 41.6694 59.2059 43.8493H62.2059ZM52.4537 34.9765H48.5306V37.9765H52.4537V34.9765ZM47.0306 36.4765V51.8309H50.0306V36.4765H47.0306ZM48.5306 53.3309H52.6567V50.3309H48.5306V53.3309Z" fill="black"/>
</svg>
