<svg width="17" height="16" viewBox="0 0 17 16" fill="none" xmlns="http://www.w3.org/2000/svg">
<path d="M15.2517 11.5358C14.7605 11.13 14.2284 10.7648 13.6963 10.3996C12.632 9.6691 11.6905 9.62839 10.9128 10.8053C10.4625 11.4546 9.84853 11.4953 9.23453 11.2112C7.4744 10.3995 6.0827 9.18203 5.30497 7.39636C4.93657 6.62528 4.93656 5.89482 5.79616 5.32665C6.24642 5.04257 6.65574 4.67722 6.65574 4.02789C6.61481 3.17564 4.56817 0.375396 3.74951 0.0913126C3.42204 -0.0304375 3.09458 -0.0304375 2.72618 0.0913126C0.802321 0.740647 0.024552 2.28292 0.802283 4.10917C3.05361 9.58793 7.02413 13.4027 12.4682 15.7565C12.7957 15.8783 13.1232 15.9594 13.2869 16C14.5149 16 15.9885 14.8231 16.3979 13.6461C16.8072 12.5098 15.9476 12.0634 15.2517 11.5358Z" fill="white"/>
</svg>
