<svg width="21" height="20" viewBox="0 0 21 20" fill="none" xmlns="http://www.w3.org/2000/svg">
<path fill-rule="evenodd" clip-rule="evenodd" d="M1.90589 1.40589C0.5 2.81177 0.5 5.0745 0.5 9.6V10.4C0.5 14.9255 0.5 17.1882 1.90589 18.5941C3.31177 20 5.5745 20 10.1 20H10.9C15.4255 20 17.6882 20 19.0941 18.5941C20.5 17.1882 20.5 14.9255 20.5 10.4V9.6C20.5 5.0745 20.5 2.81177 19.0941 1.40589C17.6882 0 15.4255 0 10.9 0H10.1C5.5745 0 3.31177 0 1.90589 1.40589ZM3.875 6.08203C3.98333 11.282 6.58329 14.407 11.1416 14.407H11.4V11.432C13.075 11.5987 14.3416 12.8237 14.8499 14.407H17.2167C16.5667 12.0404 14.8583 10.732 13.7916 10.232C14.8583 9.61537 16.3583 8.11537 16.7166 6.08203H14.5665C14.0999 7.73203 12.7167 9.23203 11.4 9.3737V6.08203H9.24996V11.8487C7.91663 11.5154 6.23333 9.8987 6.15833 6.08203H3.875Z" fill="white"/>
</svg>
