<svg width="103" height="104" viewBox="0 0 103 104" fill="none" xmlns="http://www.w3.org/2000/svg">
<circle cx="51.5" cy="52" r="50" stroke="black" stroke-width="3"/>
<path d="M56.2344 66.0625C56.2344 63.4737 54.1137 61.375 51.4976 61.375C48.8815 61.375 46.7607 63.4737 46.7607 66.0625C46.7607 68.6513 48.8815 70.75 51.4976 70.75C54.1137 70.75 56.2344 68.6513 56.2344 66.0625Z" stroke="black" stroke-width="3" stroke-linejoin="round"/>
<path d="M74.9375 42.2573C68.759 36.6631 60.5301 33.25 51.4956 33.25C42.4654 33.25 34.24 36.6598 28.0625 42.2494" stroke="black" stroke-width="3" stroke-linecap="round" stroke-linejoin="round"/>
<path d="M66.9094 50.4618C67.5171 51.0248 68.4662 50.9886 69.0292 50.3809C69.5922 49.7732 69.556 48.8241 68.9483 48.2611L66.9094 50.4618ZM34.044 48.2611C33.4363 48.8241 33.4001 49.7732 33.9631 50.3809C34.5261 50.9886 35.4752 51.0248 36.0829 50.4618L34.044 48.2611ZM68.9483 48.2611C64.1444 43.8105 58.0963 41.125 51.4962 41.125V44.125C57.2477 44.125 62.5883 46.4584 66.9094 50.4618L68.9483 48.2611ZM51.4962 41.125C44.896 41.125 38.8479 43.8105 34.044 48.2611L36.0829 50.4618C40.404 46.4584 45.7447 44.125 51.4962 44.125V41.125Z" fill="black"/>
<path d="M60.6088 56.9253C61.2326 57.4703 62.1802 57.4065 62.7253 56.7826C63.2703 56.1588 63.2065 55.2112 62.5826 54.6661L60.6088 56.9253ZM57.4654 53.1753L56.8924 54.5615L57.4654 53.1753ZM51.4712 52.0002L51.4786 53.5002L51.4712 52.0002ZM45.4887 53.2344L46.0754 54.6149L45.4887 53.2344ZM40.4072 54.6598C39.7812 55.2024 39.7136 56.1497 40.2561 56.7757C40.7987 57.4017 41.746 57.4694 42.3721 56.9268L40.4072 54.6598ZM62.5826 54.6661C61.2482 53.5002 59.7181 52.4834 58.0384 51.7891L56.8924 54.5615C58.2163 55.1089 59.4726 55.9326 60.6088 56.9253L62.5826 54.6661ZM58.0384 51.7891C55.9535 50.9272 53.7188 50.4891 51.4638 50.5002L51.4786 53.5002C53.3351 53.491 55.1752 53.8517 56.8924 54.5615L58.0384 51.7891ZM51.4638 50.5002C49.2088 50.5113 46.9785 50.9715 44.9021 51.8539L46.0754 54.6149C47.7856 53.8882 49.622 53.5093 51.4786 53.5002L51.4638 50.5002ZM44.9021 51.8539C43.2646 52.5498 41.7485 53.4973 40.4072 54.6598L42.3721 56.9268C43.4776 55.9687 44.7267 55.1881 46.0754 54.6149L44.9021 51.8539Z" fill="black"/>
</svg>
