<svg width="58" height="24" viewBox="0 0 58 24" fill="none" xmlns="http://www.w3.org/2000/svg">
<path d="M33.3673 13.7299L32.9874 11.8797H30.8308L30.451 13.7299H28.4659L30.7573 5.23857H33.11L35.3891 13.7299H33.3673ZM31.1249 10.4706H32.6933L31.9091 6.67217L31.1249 10.4706Z" fill="white"/>
<path d="M40.8538 9.14728L43.0472 13.7299H40.9518L39.6775 10.4583L38.4521 13.7299H36.4058L38.5256 9.2208L36.5651 5.23857H38.6482L39.702 7.9955L40.8293 5.23857H42.8634L40.8538 9.14728Z" fill="white"/>
<path d="M46.8369 5.23857V13.7299H44.8763V5.23857H46.8369Z" fill="white"/>
<path d="M51.9289 5.03027C52.5007 5.03027 53.0031 5.12421 53.4361 5.31209C53.8772 5.4918 54.2775 5.76137 54.6369 6.12079L53.7424 7.15004C53.2114 6.6926 52.6682 6.46387 52.1127 6.46387C51.8023 6.46387 51.5572 6.54148 51.3775 6.69668C51.1978 6.85189 51.1079 7.06427 51.1079 7.33384C51.1079 7.51355 51.1488 7.66467 51.2305 7.7872C51.3121 7.90973 51.4551 8.02817 51.6593 8.14253C51.8636 8.25689 52.1658 8.38759 52.5661 8.53463C53.0889 8.73068 53.5096 8.94306 53.8282 9.17178C54.155 9.39234 54.4041 9.67007 54.5757 10.005C54.7472 10.3399 54.833 10.7565 54.833 11.2548C54.833 11.7776 54.7064 12.2432 54.4531 12.6516C54.2081 13.0519 53.8486 13.3664 53.3748 13.5951C52.9092 13.8238 52.3619 13.9382 51.7328 13.9382C50.5483 13.9382 49.564 13.5379 48.7797 12.7374L49.7355 11.6714C50.0378 11.9328 50.34 12.1329 50.6423 12.2718C50.9527 12.4107 51.2795 12.4801 51.6226 12.4801C51.9983 12.4801 52.2883 12.3821 52.4926 12.186C52.6968 11.99 52.7989 11.7286 52.7989 11.4018C52.7989 11.0914 52.705 10.8423 52.5171 10.6544C52.3292 10.4665 51.9738 10.2786 51.451 10.0908C50.6014 9.77218 49.9969 9.41276 49.6375 9.0125C49.2781 8.61223 49.0983 8.10169 49.0983 7.48087C49.0983 6.99892 49.2209 6.57415 49.4659 6.20656C49.711 5.8308 50.0459 5.54081 50.4707 5.3366C50.9037 5.13238 51.3897 5.03027 51.9289 5.03027Z" fill="white"/>
<path d="M30.0975 19.1966L29.9693 18.6085H29.2529L29.1247 19.1966H28.5743L29.2906 16.5877H29.9467L30.6593 19.1966H30.0975ZM29.3434 18.2088H29.8788L29.6111 16.9911L29.3434 18.2088Z" fill="white"/>
<path d="M31.9527 16.5877C32.282 16.5877 32.5346 16.658 32.7106 16.7988C32.8865 16.9396 32.9745 17.1482 32.9745 17.4246C32.9745 17.7162 32.8878 17.9361 32.7143 18.0844C32.5409 18.2302 32.3021 18.3031 31.998 18.3031H31.7868V19.1966H31.2439V16.5877H31.9527ZM31.9603 17.9035C32.1136 17.9035 32.228 17.867 32.3034 17.7941C32.3788 17.7212 32.4165 17.5993 32.4165 17.4284C32.4165 17.2751 32.3788 17.162 32.3034 17.0891C32.228 17.0162 32.1123 16.9798 31.9565 16.9798H31.7868V17.9035H31.9603Z" fill="white"/>
<path d="M34.6918 19.1966L34.5636 18.6085H33.8473L33.7191 19.1966H33.1686L33.885 16.5877H34.541L35.2536 19.1966H34.6918ZM33.9378 18.2088H34.4731L34.2055 16.9911L33.9378 18.2088Z" fill="white"/>
<path d="M36.6149 18.1674H36.3812V19.1966H35.8382V16.5877H36.5621C37.2307 16.5877 37.565 16.8466 37.565 17.3643C37.565 17.7036 37.413 17.9374 37.1088 18.0656L37.7083 19.1966H37.1088L36.6149 18.1674ZM36.5885 17.7866C36.7318 17.7866 36.8361 17.7526 36.9015 17.6848C36.9693 17.6169 37.0033 17.5101 37.0033 17.3643C37.0033 17.2311 36.9668 17.1331 36.8939 17.0703C36.8235 17.0074 36.7117 16.976 36.5584 16.976H36.3812V17.7866H36.5885Z" fill="white"/>
<path d="M39.8351 16.5877L39.7785 17.0099H39.1941V19.1966H38.6512V17.0099H38.0404V16.5877H39.8351Z" fill="white"/>
<path d="M42.0226 17.4209C42.1634 17.4209 42.279 17.4674 42.3695 17.5604C42.46 17.6534 42.5052 17.7702 42.5052 17.911C42.5052 18.0517 42.46 18.1686 42.3695 18.2616C42.279 18.3521 42.1634 18.3973 42.0226 18.3973C41.8819 18.3973 41.7662 18.3508 41.6757 18.2578C41.5853 18.1623 41.54 18.0455 41.54 17.9072C41.54 17.7665 41.5853 17.6509 41.6757 17.5604C41.7662 17.4674 41.8819 17.4209 42.0226 17.4209Z" fill="white"/>
<path d="M45.7061 19.1966V18.0505H44.9822V19.1966H44.4393V16.5877H44.9822V17.6207H45.7061V16.5877H46.249V19.1966H45.7061Z" fill="white"/>
<path d="M48.0456 16.5273C48.3799 16.5273 48.6388 16.6442 48.8223 16.878C49.0058 17.1092 49.0976 17.4473 49.0976 17.8921C49.0976 18.332 49.0058 18.6701 48.8223 18.9063C48.6388 19.1401 48.3799 19.2569 48.0456 19.2569C47.7113 19.2569 47.4512 19.1413 47.2652 18.9101C47.0817 18.6763 46.99 18.337 46.99 17.8921C46.99 17.4523 47.0817 17.1155 47.2652 16.8817C47.4512 16.6455 47.7113 16.5273 48.0456 16.5273ZM48.0456 16.9345C47.8797 16.9345 47.7566 17.0087 47.6761 17.157C47.5957 17.3053 47.5555 17.5503 47.5555 17.8921C47.5555 18.2365 47.5957 18.4828 47.6761 18.6311C47.7591 18.7769 47.8823 18.8498 48.0456 18.8498C48.2115 18.8498 48.3334 18.7769 48.4114 18.6311C48.4918 18.4828 48.532 18.2365 48.532 17.8921C48.532 17.5503 48.4918 17.3053 48.4114 17.157C48.3334 17.0087 48.2115 16.9345 48.0456 16.9345Z" fill="white"/>
<path d="M51.2985 16.5877L51.2419 17.0099H50.6575V19.1966H50.1146V17.0099H49.5038V16.5877H51.2985Z" fill="white"/>
<path d="M53.3471 16.5877L53.2905 16.9835H52.4573V17.6735H53.185V18.0656H52.4573V18.797H53.3471V19.1966H51.9144V16.5877H53.3471Z" fill="white"/>
<path d="M54.6238 16.5877V18.7593H55.5437L55.4872 19.1966H54.0808V16.5877H54.6238Z" fill="white"/>
<g clip-path="url(#clip0_594_4189)">
<path d="M7.45827 1.48919C7.56208 1.58395 7.64986 1.69317 7.71949 1.81259C9.02738 1.26322 10.464 0.959637 11.9715 0.959637C18.0398 0.959637 22.959 5.87871 22.959 11.9467C22.959 18.0147 18.0398 22.9337 11.9715 22.9337C5.90326 22.9337 0.983972 18.0147 0.983972 11.9467C0.983972 9.21291 1.98245 6.71233 3.63464 4.78971C3.61164 4.76735 3.58887 4.74459 3.56631 4.72142C3.36012 4.51058 3.18473 4.27554 3.03893 4.01306C1.16348 6.12293 0.024292 8.90178 0.024292 11.9467C0.024292 18.5447 5.37324 23.8934 11.9715 23.8934C18.5698 23.8934 23.9187 18.5447 23.9187 11.9467C23.9187 5.34871 18.5698 0 11.9715 0C10.1294 0 8.38462 0.416899 6.82645 1.16149C7.06044 1.2131 7.27873 1.3253 7.45827 1.48919Z" fill="white"/>
<path d="M6.91165 2.19142C6.89739 2.17434 6.88195 2.15814 6.86538 2.14295C6.86538 2.14294 6.86538 2.14295 6.86538 2.14295C6.77257 2.05784 6.65125 2.01056 6.52532 2.01044H6.47813C6.46979 2.01117 6.46148 2.0121 6.45321 2.01323C6.32927 2.0302 6.21566 2.09255 6.13469 2.18869C6.1239 2.20151 6.1138 2.21479 6.1044 2.22849C6.03863 2.3244 6.0076 2.44055 6.01749 2.55744C6.01772 2.56046 6.01796 2.56349 6.0182 2.56651C6.02181 2.61191 6.026 2.65723 6.03078 2.70247C6.08522 3.21821 6.2154 3.72338 6.41735 4.20162C5.78442 3.96239 5.3187 3.7626 4.99269 3.46007C4.76374 3.24762 4.60369 2.98449 4.503 2.62145C4.41157 2.29176 4.36909 1.87966 4.36844 1.34829C4.36844 1.21425 4.31519 1.0857 4.2204 0.990915C4.12561 0.896133 3.99706 0.842885 3.86301 0.842885C3.72938 0.843519 3.60143 0.897047 3.50716 0.991761C3.41289 1.08647 3.35997 1.21467 3.35998 1.34829C3.35998 2.20821 3.4747 2.84683 3.68706 3.33869C3.82801 3.66519 4.01199 3.92701 4.23397 4.14597C4.76576 4.67051 5.51568 4.94902 6.41496 5.28121C6.46679 5.30056 6.51943 5.31985 6.57282 5.33941C6.70477 5.38775 6.84134 5.43779 6.98197 5.49473C7.10377 5.54266 7.23021 5.58914 7.36167 5.63471C7.08061 5.69094 6.80092 5.75465 6.52292 5.8258C6.39456 5.86084 6.2852 5.94508 6.21856 6.06024C6.15192 6.1754 6.13338 6.31219 6.16696 6.44093C6.17675 6.47846 6.19074 6.51443 6.20849 6.54824C6.22835 6.59268 6.25469 6.63438 6.287 6.67188L6.45308 6.83796C6.84989 7.23487 7.22577 7.61085 7.60976 7.92341C7.65799 7.96252 7.70683 8.00084 7.75627 8.03835L6.67791 8.52849C6.61293 8.55365 6.55324 8.59221 6.50302 8.64242C6.40823 8.73721 6.35498 8.86576 6.35498 8.9998V10.3289C6.35498 10.4329 6.35898 12.8016 6.71006 14.0875C6.73905 14.1945 6.80245 14.2889 6.89048 14.3563C6.9785 14.4236 7.08626 14.4601 7.1971 14.4601C7.24256 14.4601 7.28779 14.4536 7.33146 14.4409C7.46071 14.4056 7.57064 14.3204 7.63708 14.204C7.70351 14.0876 7.72102 13.9496 7.68574 13.8204C7.36584 12.6656 7.36584 10.3545 7.36584 10.3321V9.32595L8.63422 8.7495L8.96785 8.59742C9.01641 8.58184 9.06258 8.55894 9.10469 8.52926C9.13564 8.50916 9.16437 8.48568 9.19033 8.4592C9.23776 8.41083 9.27498 8.35341 9.29978 8.29037C9.32458 8.22732 9.33645 8.15994 9.33468 8.09221C9.33292 8.02449 9.31755 7.95782 9.28951 7.89615C9.26146 7.83448 9.2213 7.77908 9.17142 7.73324C9.12154 7.6874 9.06294 7.65206 8.99913 7.62931C8.98147 7.62302 8.96351 7.61772 8.94533 7.61344C8.70014 7.47821 8.4673 7.32157 8.24955 7.1453C8.05523 6.98648 7.85716 6.80424 7.65294 6.60707C8.45348 6.45187 9.26572 6.36177 10.0817 6.33785C10.0998 6.33985 10.1179 6.34084 10.1361 6.34081C10.1625 6.3407 10.1886 6.33854 10.2144 6.3344C10.6198 6.32554 11.0254 6.33942 11.4293 6.37599C12.6289 6.48955 13.7797 6.96377 14.793 7.38441C15.3416 7.61073 15.8606 7.82425 16.3572 7.97379C16.8454 8.11212 17.3481 8.19127 17.8545 8.20981C17.3968 8.94466 16.5143 9.25974 14.9385 9.77071C13.8085 10.1362 12.4026 10.5912 10.8247 11.4309C9.31159 12.2354 8.24155 13.4989 7.96324 14.8104C7.74011 15.8636 8.01842 16.9296 8.77017 17.8892C8.78418 17.9072 8.79934 17.9241 8.81555 17.9398C9.66929 18.9338 10.7003 19.7955 11.7236 20.3707C11.7996 20.4132 11.8852 20.4355 11.9723 20.4355L11.9691 20.4395C12.0698 20.44 12.168 20.4105 12.2514 20.3551C13.8969 19.4216 16.0253 17.4595 17.0018 14.8168C17.0903 14.5796 17.1684 14.3362 17.2361 14.0867C17.2601 14.0003 17.2825 13.9067 17.3025 13.8076C17.4201 13.2678 17.5033 12.5409 17.5512 11.6428V11.5988C17.5512 11.5957 17.551 11.5926 17.5509 11.5895C17.5499 11.5306 17.5386 11.472 17.5172 11.4165L17.5161 11.4133C17.5118 11.4023 17.5071 11.3918 17.5022 11.3811L17.4999 11.3759L17.4977 11.3709V11.3661L17.4793 11.3333C17.4746 11.3237 17.469 11.3146 17.4625 11.3061C17.4225 11.2477 17.3708 11.1984 17.3106 11.1612C17.2504 11.124 17.1831 11.0998 17.113 11.0902H17.0714C17.0618 11.0894 17.0522 11.0894 17.0426 11.0902C17.0244 11.0903 17.0062 11.0917 16.9882 11.0942C16.9704 11.0952 16.9528 11.0979 16.9354 11.1022C16.9221 11.1044 16.909 11.1079 16.8963 11.1126C16.8833 11.1158 16.8707 11.1204 16.8587 11.1262L16.8195 11.143L16.8115 11.1478C16.8025 11.1525 16.7936 11.1574 16.7849 11.1626C16.4706 11.3127 15.928 11.4909 15.3536 11.6796L15.3511 11.6804C13.4405 12.3095 11.4661 12.9596 11.4661 14.201C11.4661 14.3351 11.5193 14.4636 11.6141 14.5584C11.7089 14.6532 11.8375 14.7064 11.9715 14.7064H11.9731C12.1072 14.7064 12.2357 14.6532 12.3305 14.5584C12.4253 14.4636 12.4785 14.3351 12.4785 14.201C12.4785 14.1898 12.4881 13.9331 13.3782 13.4989C14.036 13.1776 14.9038 12.8923 15.6695 12.6405L15.6893 12.634C15.974 12.5402 16.2419 12.4518 16.4842 12.3667C16.4493 12.8562 16.3737 13.3419 16.2581 13.8188C16.2373 13.8924 16.2157 13.9667 16.1933 14.0403L16.1927 14.0424L16.1917 14.0427C15.9374 14.1315 15.6487 14.2266 15.352 14.3242C13.4406 14.9528 11.4653 15.6037 11.4653 16.8448C11.4626 16.9128 11.4736 16.9807 11.4978 17.0443C11.5219 17.108 11.5587 17.1661 11.6059 17.2151C11.653 17.2642 11.7096 17.3033 11.7722 17.3299C11.8349 17.3566 11.9022 17.3703 11.9703 17.3703C12.0384 17.3703 12.1057 17.3566 12.1684 17.3299C12.231 17.3033 12.2876 17.2642 12.3347 17.2151C12.3819 17.1661 12.4187 17.108 12.4428 17.0443C12.467 16.9807 12.478 16.9128 12.4753 16.8448C12.4753 16.8344 12.4849 16.5777 13.375 16.1435C14.0328 15.8222 14.9006 15.5369 15.6663 15.2851L15.6679 15.2846C15.6796 15.2813 15.691 15.2773 15.7023 15.2726L15.7028 15.2725C14.7845 17.1419 13.2506 18.5621 11.9715 19.3423L11.9676 19.3447C11.1236 18.8236 10.2569 18.0735 9.55471 17.2487C9.54902 17.242 9.54316 17.2355 9.53715 17.2291C8.99042 16.5136 8.79529 15.7698 8.95251 15.0199C9.16924 13.9971 10.0465 12.9895 11.2989 12.3233C12.7953 11.5269 14.095 11.1063 15.2425 10.735L15.2527 10.7317C17.1056 10.1322 18.5756 9.6566 19.0782 7.90654C19.112 7.83194 19.1275 7.74954 19.1223 7.66631C19.1139 7.53248 19.0527 7.40745 18.9522 7.31875C18.9409 7.30879 18.9292 7.29938 18.9172 7.29054C18.8654 7.25141 18.806 7.22224 18.742 7.20528C18.6684 7.18575 18.592 7.18331 18.5185 7.19721C18.0253 7.22343 17.3209 7.20791 16.6515 7.00696C16.2021 6.86861 15.7063 6.66389 15.1816 6.44717L15.1789 6.44604C14.0999 6.00168 12.8765 5.49782 11.5276 5.36997C11.0729 5.32866 10.6162 5.31345 10.1598 5.32443C9.54656 5.1957 9.01296 5.07033 8.53985 4.94054C7.65854 4.64945 7.14911 3.81856 7.02675 2.47027C7.01772 2.36722 6.97726 2.27002 6.91165 2.19142Z" fill="white"/>
</g>
<defs>
<clipPath id="clip0_594_4189">
<rect width="23.8944" height="23.8934" fill="white" transform="translate(0.024292)"/>
</clipPath>
</defs>
</svg>
